<svg xmlns="http://www.w3.org/2000/svg" xmlns:xlink="http://www.w3.org/1999/xlink" width="405" zoomAndPan="magnify" viewBox="0 0 303.75 135.000003" height="180" preserveAspectRatio="xMidYMid meet" version="1.0"><defs><g/><clipPath id="e34b624b55"><path d="M 179.332031 6.027344 L 249.3125 6.027344 L 249.3125 76 L 179.332031 76 Z M 179.332031 6.027344 " clip-rule="nonzero"/></clipPath></defs><path fill="#ffffff" d="M 205.570312 45.386719 L 205.570312 43.925781 C 205.570312 40.707031 202.960938 38.097656 199.742188 38.097656 L 196.824219 38.097656 C 193.605469 38.097656 190.992188 40.707031 190.992188 43.925781 L 190.992188 54.132812 C 190.992188 57.351562 193.605469 59.960938 196.824219 59.960938 L 199.742188 59.960938 C 202.960938 59.960938 205.570312 57.351562 205.570312 54.132812 L 205.570312 52.671875 L 201.199219 52.671875 L 201.199219 54.132812 C 201.199219 54.9375 200.546875 55.589844 199.742188 55.589844 L 196.828125 55.589844 C 196.023438 55.589844 195.371094 54.9375 195.371094 54.132812 L 195.371094 43.925781 C 195.371094 43.121094 196.023438 42.46875 196.828125 42.46875 L 199.742188 42.46875 C 200.546875 42.46875 201.199219 43.121094 201.199219 43.925781 L 201.199219 45.386719 Z M 205.570312 45.386719 " fill-opacity="1" fill-rule="nonzero"/><path fill="#ffffff" d="M 217.234375 52.03125 L 213.054688 38.097656 L 208.488281 38.097656 L 215.046875 59.960938 L 219.417969 59.960938 L 225.980469 38.097656 L 221.414062 38.097656 Z M 217.234375 52.03125 " fill-opacity="1" fill-rule="nonzero"/><g clip-path="url(#e34b624b55)"><path fill="#ffffff" d="M 191.882812 6.027344 L 188.285156 26.433594 L 179.332031 26.433594 L 179.332031 75.996094 L 185.164062 75.996094 L 185.164062 32.265625 L 231.808594 32.265625 L 231.808594 75.996094 L 238.753906 75.996094 L 249.300781 16.152344 Z M 237.640625 48.722656 L 237.640625 26.433594 L 194.203125 26.433594 L 196.609375 12.78125 L 242.546875 20.882812 Z M 237.640625 48.722656 " fill-opacity="1" fill-rule="nonzero"/></g><path fill="#ffffff" d="M 204.113281 65.792969 L 225.980469 65.792969 L 225.980469 70.164062 L 204.113281 70.164062 Z M 204.113281 65.792969 " fill-opacity="1" fill-rule="nonzero"/><path fill="#ffffff" d="M 190.992188 65.792969 L 199.742188 65.792969 L 199.742188 70.164062 L 190.992188 70.164062 Z M 190.992188 65.792969 " fill-opacity="1" fill-rule="nonzero"/><g fill="#ffffff" fill-opacity="1"><g transform="translate(15.999561, 110.85549)"><g><path d="M 11.1875 0 L 4.671875 0 L 4.671875 -35.96875 L 13.96875 -35.96875 L 23.078125 -9.515625 L 23.59375 -9.515625 L 32.640625 -35.96875 L 41.71875 -35.96875 L 41.71875 0 L 34.984375 0 L 34.984375 -23.765625 L 34.359375 -23.859375 L 26.046875 0 L 20.125 0 L 11.8125 -23.859375 L 11.1875 -23.765625 Z M 11.1875 0 "/></g></g></g><g fill="#ffffff" fill-opacity="1"><g transform="translate(62.408965, 110.85549)"><g><path d="M 6 11.515625 C 4.832031 11.515625 3.773438 11.421875 2.828125 11.234375 C 1.890625 11.054688 1.128906 10.820312 0.546875 10.53125 L 1.625 5.015625 L 2.0625 4.875 C 2.476562 5.082031 2.988281 5.25 3.59375 5.375 C 4.195312 5.507812 4.816406 5.578125 5.453125 5.578125 C 6.554688 5.578125 7.472656 5.429688 8.203125 5.140625 C 8.929688 4.859375 9.550781 4.382812 10.0625 3.71875 C 10.570312 3.0625 11.019531 2.140625 11.40625 0.953125 L 0.59375 -27.125 L 7.71875 -27.125 L 14.46875 -8.265625 L 15.046875 -8.265625 L 21.625 -27.125 L 28.5625 -27.125 L 17.65625 1.703125 C 16.789062 4.023438 15.835938 5.894531 14.796875 7.3125 C 13.753906 8.738281 12.523438 9.796875 11.109375 10.484375 C 9.691406 11.171875 7.988281 11.515625 6 11.515625 Z M 6 11.515625 "/></g></g></g><g fill="#ffffff" fill-opacity="1"><g transform="translate(91.52859, 110.85549)"><g><path d="M 4.671875 0 L 4.671875 -35.96875 L 19.109375 -35.96875 C 22.835938 -35.96875 25.644531 -35.109375 27.53125 -33.390625 C 29.425781 -31.671875 30.375 -29.304688 30.375 -26.296875 C 30.375 -24.109375 29.820312 -22.316406 28.71875 -20.921875 C 27.613281 -19.535156 25.960938 -18.472656 23.765625 -17.734375 L 23.765625 -17.21875 C 24.890625 -16.726562 25.800781 -16 26.5 -15.03125 C 27.195312 -14.0625 27.859375 -12.625 28.484375 -10.71875 L 32.078125 0 L 24.765625 0 L 21.25 -10.75 C 20.882812 -11.832031 20.476562 -12.671875 20.03125 -13.265625 C 19.582031 -13.867188 19.007812 -14.304688 18.3125 -14.578125 C 17.613281 -14.847656 16.707031 -14.984375 15.59375 -14.984375 L 11.78125 -14.984375 L 11.78125 0 Z M 18.25 -20.609375 C 21.695312 -20.609375 23.421875 -22.21875 23.421875 -25.4375 C 23.421875 -28.695312 21.695312 -30.328125 18.25 -30.328125 L 11.78125 -30.328125 L 11.78125 -20.609375 Z M 18.25 -20.609375 "/></g></g></g><g fill="#ffffff" fill-opacity="1"><g transform="translate(125.148969, 110.85549)"><g><path d="M 26.8125 -12.03125 L 9.375 -12.03125 C 9.570312 -9.664062 10.242188 -7.945312 11.390625 -6.875 C 12.535156 -5.800781 14.101562 -5.265625 16.09375 -5.265625 C 17.644531 -5.265625 18.90625 -5.554688 19.875 -6.140625 C 20.84375 -6.722656 21.625 -7.601562 22.21875 -8.78125 L 22.734375 -8.78125 L 27.25 -5.875 C 26.363281 -3.976562 25.023438 -2.4375 23.234375 -1.25 C 21.453125 -0.0703125 19.070312 0.515625 16.09375 0.515625 C 13.28125 0.515625 10.851562 -0.015625 8.8125 -1.078125 C 6.769531 -2.148438 5.195312 -3.738281 4.09375 -5.84375 C 2.988281 -7.945312 2.4375 -10.515625 2.4375 -13.546875 C 2.4375 -16.628906 3.015625 -19.226562 4.171875 -21.34375 C 5.335938 -23.457031 6.910156 -25.035156 8.890625 -26.078125 C 10.878906 -27.117188 13.113281 -27.640625 15.59375 -27.640625 C 19.425781 -27.640625 22.363281 -26.625 24.40625 -24.59375 C 26.445312 -22.5625 27.46875 -19.578125 27.46875 -15.640625 C 27.46875 -14.210938 27.421875 -13.109375 27.328125 -12.328125 Z M 20.953125 -16.4375 C 20.890625 -18.5 20.410156 -20 19.515625 -20.9375 C 18.617188 -21.882812 17.3125 -22.359375 15.59375 -22.359375 C 12.144531 -22.359375 10.117188 -20.382812 9.515625 -16.4375 Z M 20.953125 -16.4375 "/></g></g></g><g fill="#ffffff" fill-opacity="1"><g transform="translate(154.637509, 110.85549)"><g><path d="M 12.6875 0.515625 C 10.832031 0.515625 9.132812 0.300781 7.59375 -0.125 C 6.050781 -0.5625 4.734375 -1.160156 3.640625 -1.921875 C 2.554688 -2.691406 1.753906 -3.566406 1.234375 -4.546875 L 5.015625 -8.640625 L 5.53125 -8.640625 C 6.4375 -7.421875 7.503906 -6.507812 8.734375 -5.90625 C 9.960938 -5.300781 11.296875 -5 12.734375 -5 C 14.066406 -5 15.066406 -5.234375 15.734375 -5.703125 C 16.410156 -6.179688 16.75 -6.863281 16.75 -7.75 C 16.75 -8.4375 16.503906 -9.015625 16.015625 -9.484375 C 15.535156 -9.953125 14.753906 -10.316406 13.671875 -10.578125 L 10.078125 -11.4375 C 7.390625 -12.070312 5.425781 -13.050781 4.1875 -14.375 C 2.957031 -15.695312 2.34375 -17.375 2.34375 -19.40625 C 2.34375 -21.09375 2.769531 -22.554688 3.625 -23.796875 C 4.488281 -25.046875 5.703125 -26 7.265625 -26.65625 C 8.835938 -27.3125 10.660156 -27.640625 12.734375 -27.640625 C 15.179688 -27.640625 17.207031 -27.285156 18.8125 -26.578125 C 20.425781 -25.878906 21.679688 -24.941406 22.578125 -23.765625 L 18.9375 -19.828125 L 18.453125 -19.828125 C 17.691406 -20.679688 16.835938 -21.300781 15.890625 -21.6875 C 14.953125 -22.082031 13.898438 -22.28125 12.734375 -22.28125 C 10.046875 -22.28125 8.703125 -21.445312 8.703125 -19.78125 C 8.703125 -19.070312 8.953125 -18.492188 9.453125 -18.046875 C 9.953125 -17.609375 10.835938 -17.25 12.109375 -16.96875 L 15.453125 -16.234375 C 18.203125 -15.640625 20.210938 -14.691406 21.484375 -13.390625 C 22.753906 -12.085938 23.390625 -10.335938 23.390625 -8.140625 C 23.390625 -6.421875 22.960938 -4.90625 22.109375 -3.59375 C 21.253906 -2.28125 20.023438 -1.265625 18.421875 -0.546875 C 16.816406 0.160156 14.90625 0.515625 12.6875 0.515625 Z M 12.6875 0.515625 "/></g></g></g><g fill="#ffffff" fill-opacity="1"><g transform="translate(179.64989, 110.85549)"><g><path d="M 12.421875 0.515625 C 9.367188 0.515625 7.117188 -0.316406 5.671875 -1.984375 C 4.222656 -3.648438 3.5 -6.039062 3.5 -9.15625 L 3.5 -27.125 L 10.3125 -27.125 L 10.3125 -10.015625 C 10.3125 -8.359375 10.664062 -7.144531 11.375 -6.375 C 12.09375 -5.613281 13.195312 -5.234375 14.6875 -5.234375 C 16.570312 -5.234375 18.035156 -5.851562 19.078125 -7.09375 C 20.128906 -8.332031 20.65625 -10.28125 20.65625 -12.9375 L 20.65625 -27.125 L 27.46875 -27.125 L 27.46875 0 L 20.9375 0 L 20.9375 -3.984375 L 20.421875 -4.109375 C 19.546875 -2.546875 18.476562 -1.382812 17.21875 -0.625 C 15.96875 0.132812 14.367188 0.515625 12.421875 0.515625 Z M 12.421875 0.515625 "/></g></g></g><g fill="#ffffff" fill-opacity="1"><g transform="translate(211.032189, 110.85549)"><g><path d="M 3.90625 0 L 3.90625 -27.125 L 10.453125 -27.125 L 10.453125 -23.484375 L 10.96875 -23.390625 C 11.851562 -24.847656 12.890625 -25.921875 14.078125 -26.609375 C 15.265625 -27.296875 16.785156 -27.640625 18.640625 -27.640625 C 20.691406 -27.640625 22.335938 -27.234375 23.578125 -26.421875 C 24.828125 -25.617188 25.738281 -24.4375 26.3125 -22.875 L 26.828125 -22.875 C 27.671875 -24.5 28.75 -25.695312 30.0625 -26.46875 C 31.382812 -27.25 33.03125 -27.640625 35 -27.640625 C 40.625 -27.640625 43.4375 -24.507812 43.4375 -18.25 L 43.4375 0 L 36.625 0 L 36.625 -17.390625 C 36.625 -18.984375 36.3125 -20.128906 35.6875 -20.828125 C 35.0625 -21.535156 34.0625 -21.890625 32.6875 -21.890625 C 28.945312 -21.890625 27.078125 -19.390625 27.078125 -14.390625 L 27.078125 0 L 20.265625 0 L 20.265625 -17.390625 C 20.265625 -18.984375 19.945312 -20.128906 19.3125 -20.828125 C 18.6875 -21.535156 17.6875 -21.890625 16.3125 -21.890625 C 14.550781 -21.890625 13.175781 -21.300781 12.1875 -20.125 C 11.207031 -18.957031 10.71875 -17.09375 10.71875 -14.53125 L 10.71875 0 Z M 3.90625 0 "/></g></g></g><g fill="#ffffff" fill-opacity="1"><g transform="translate(257.958072, 110.85549)"><g><path d="M 26.8125 -12.03125 L 9.375 -12.03125 C 9.570312 -9.664062 10.242188 -7.945312 11.390625 -6.875 C 12.535156 -5.800781 14.101562 -5.265625 16.09375 -5.265625 C 17.644531 -5.265625 18.90625 -5.554688 19.875 -6.140625 C 20.84375 -6.722656 21.625 -7.601562 22.21875 -8.78125 L 22.734375 -8.78125 L 27.25 -5.875 C 26.363281 -3.976562 25.023438 -2.4375 23.234375 -1.25 C 21.453125 -0.0703125 19.070312 0.515625 16.09375 0.515625 C 13.28125 0.515625 10.851562 -0.015625 8.8125 -1.078125 C 6.769531 -2.148438 5.195312 -3.738281 4.09375 -5.84375 C 2.988281 -7.945312 2.4375 -10.515625 2.4375 -13.546875 C 2.4375 -16.628906 3.015625 -19.226562 4.171875 -21.34375 C 5.335938 -23.457031 6.910156 -25.035156 8.890625 -26.078125 C 10.878906 -27.117188 13.113281 -27.640625 15.59375 -27.640625 C 19.425781 -27.640625 22.363281 -26.625 24.40625 -24.59375 C 26.445312 -22.5625 27.46875 -19.578125 27.46875 -15.640625 C 27.46875 -14.210938 27.421875 -13.109375 27.328125 -12.328125 Z M 20.953125 -16.4375 C 20.890625 -18.5 20.410156 -20 19.515625 -20.9375 C 18.617188 -21.882812 17.3125 -22.359375 15.59375 -22.359375 C 12.144531 -22.359375 10.117188 -20.382812 9.515625 -16.4375 Z M 20.953125 -16.4375 "/></g></g></g><g fill="#ffffff" fill-opacity="1"><g transform="translate(24.015998, 62.552116)"><g><path d="M 29.53125 -36.84375 L 29.53125 -30.71875 L 18.90625 -30.71875 L 18.90625 0 L 11.640625 0 L 11.640625 -30.71875 L 1.015625 -30.71875 L 1.015625 -36.84375 Z M 29.53125 -36.84375 "/></g></g></g><g fill="#ffffff" fill-opacity="1"><g transform="translate(54.767332, 62.552116)"><g><path d="M 10.84375 0.53125 C 9.0625 0.53125 7.515625 0.203125 6.203125 -0.453125 C 4.890625 -1.109375 3.878906 -2.066406 3.171875 -3.328125 C 2.460938 -4.597656 2.109375 -6.125 2.109375 -7.90625 C 2.109375 -9.550781 2.460938 -10.929688 3.171875 -12.046875 C 3.878906 -13.171875 4.972656 -14.085938 6.453125 -14.796875 C 7.929688 -15.515625 9.863281 -16.066406 12.25 -16.453125 C 13.90625 -16.722656 15.164062 -17.015625 16.03125 -17.328125 C 16.90625 -17.648438 17.492188 -18.015625 17.796875 -18.421875 C 18.097656 -18.828125 18.25 -19.335938 18.25 -19.953125 C 18.25 -20.847656 17.9375 -21.53125 17.3125 -22 C 16.6875 -22.46875 15.65625 -22.703125 14.21875 -22.703125 C 12.664062 -22.703125 11.191406 -22.359375 9.796875 -21.671875 C 8.410156 -20.984375 7.203125 -20.078125 6.171875 -18.953125 L 5.671875 -18.953125 L 2.75 -23.359375 C 4.15625 -24.921875 5.875 -26.140625 7.90625 -27.015625 C 9.945312 -27.890625 12.164062 -28.328125 14.5625 -28.328125 C 18.238281 -28.328125 20.898438 -27.546875 22.546875 -25.984375 C 24.203125 -24.421875 25.03125 -22.203125 25.03125 -19.328125 L 25.03125 -7.25 C 25.03125 -6.007812 25.570312 -5.390625 26.65625 -5.390625 C 27.082031 -5.390625 27.492188 -5.46875 27.890625 -5.625 L 28.25 -5.515625 L 28.75 -0.65625 C 28.363281 -0.40625 27.828125 -0.195312 27.140625 -0.03125 C 26.453125 0.125 25.695312 0.203125 24.875 0.203125 C 23.207031 0.203125 21.90625 -0.113281 20.96875 -0.75 C 20.039062 -1.394531 19.375 -2.394531 18.96875 -3.75 L 18.453125 -3.8125 C 17.085938 -0.914062 14.550781 0.53125 10.84375 0.53125 Z M 13.046875 -4.6875 C 14.660156 -4.6875 15.953125 -5.226562 16.921875 -6.3125 C 17.890625 -7.394531 18.375 -8.90625 18.375 -10.84375 L 18.375 -13.65625 L 17.890625 -13.765625 C 17.472656 -13.421875 16.921875 -13.132812 16.234375 -12.90625 C 15.554688 -12.6875 14.582031 -12.46875 13.3125 -12.25 C 11.789062 -12 10.695312 -11.566406 10.03125 -10.953125 C 9.375 -10.335938 9.046875 -9.46875 9.046875 -8.34375 C 9.046875 -7.144531 9.394531 -6.234375 10.09375 -5.609375 C 10.800781 -4.992188 11.785156 -4.6875 13.046875 -4.6875 Z M 13.046875 -4.6875 "/></g></g></g><g fill="#ffffff" fill-opacity="1"><g transform="translate(84.283772, 62.552116)"><g><path d="M 4 0 L 4 -27.796875 L 10.984375 -27.796875 L 10.984375 0 Z M 7.484375 -31.203125 C 6.691406 -31.203125 5.984375 -31.367188 5.359375 -31.703125 C 4.742188 -32.035156 4.265625 -32.492188 3.921875 -33.078125 C 3.578125 -33.671875 3.40625 -34.335938 3.40625 -35.078125 C 3.40625 -35.816406 3.578125 -36.476562 3.921875 -37.0625 C 4.265625 -37.65625 4.742188 -38.117188 5.359375 -38.453125 C 5.984375 -38.785156 6.691406 -38.953125 7.484375 -38.953125 C 8.273438 -38.953125 8.976562 -38.785156 9.59375 -38.453125 C 10.207031 -38.117188 10.6875 -37.65625 11.03125 -37.0625 C 11.375 -36.476562 11.546875 -35.816406 11.546875 -35.078125 C 11.546875 -34.335938 11.375 -33.671875 11.03125 -33.078125 C 10.6875 -32.492188 10.207031 -32.035156 9.59375 -31.703125 C 8.976562 -31.367188 8.273438 -31.203125 7.484375 -31.203125 Z M 7.484375 -31.203125 "/></g></g></g><g fill="#ffffff" fill-opacity="1"><g transform="translate(99.485455, 62.552116)"><g><path d="M 11.546875 0.53125 C 9.035156 0.53125 7.117188 -0.144531 5.796875 -1.5 C 4.484375 -2.851562 3.828125 -4.90625 3.828125 -7.65625 L 3.828125 -38.953125 L 10.8125 -38.953125 L 10.8125 -7.9375 C 10.8125 -6.238281 11.515625 -5.390625 12.921875 -5.390625 C 13.328125 -5.390625 13.757812 -5.457031 14.21875 -5.59375 L 14.5625 -5.5 L 15.203125 -0.125 C 14.804688 0.0703125 14.289062 0.226562 13.65625 0.34375 C 13.019531 0.46875 12.316406 0.53125 11.546875 0.53125 Z M 11.546875 0.53125 "/></g></g></g><g fill="#ffffff" fill-opacity="1"><g transform="translate(115.670013, 62.552116)"><g><path d="M 16.15625 0.53125 C 13.4375 0.53125 11.046875 -0.0234375 8.984375 -1.140625 C 6.921875 -2.265625 5.320312 -3.90625 4.1875 -6.0625 C 3.0625 -8.21875 2.5 -10.828125 2.5 -13.890625 C 2.5 -16.941406 3.0625 -19.550781 4.1875 -21.71875 C 5.320312 -23.882812 6.921875 -25.523438 8.984375 -26.640625 C 11.046875 -27.765625 13.4375 -28.328125 16.15625 -28.328125 C 18.875 -28.328125 21.257812 -27.765625 23.3125 -26.640625 C 25.375 -25.523438 26.976562 -23.882812 28.125 -21.71875 C 29.269531 -19.550781 29.84375 -16.941406 29.84375 -13.890625 C 29.84375 -10.828125 29.269531 -8.21875 28.125 -6.0625 C 26.976562 -3.90625 25.375 -2.265625 23.3125 -1.140625 C 21.257812 -0.0234375 18.875 0.53125 16.15625 0.53125 Z M 16.15625 -5.390625 C 20.46875 -5.390625 22.625 -8.222656 22.625 -13.890625 C 22.625 -16.828125 22.066406 -18.976562 20.953125 -20.34375 C 19.847656 -21.71875 18.25 -22.40625 16.15625 -22.40625 C 11.832031 -22.40625 9.671875 -19.566406 9.671875 -13.890625 C 9.671875 -8.222656 11.832031 -5.390625 16.15625 -5.390625 Z M 16.15625 -5.390625 "/></g></g></g><g fill="#ffffff" fill-opacity="1"><g transform="translate(148.185489, 62.552116)"><g><path d="M 4 0 L 4 -27.796875 L 10.78125 -27.796875 L 10.78125 -23.65625 L 11.3125 -23.5625 C 11.988281 -25.101562 12.867188 -26.234375 13.953125 -26.953125 C 15.046875 -27.679688 16.375 -28.046875 17.9375 -28.046875 C 19.519531 -28.046875 20.722656 -27.773438 21.546875 -27.234375 L 20.359375 -21.21875 L 19.828125 -21.125 C 19.378906 -21.300781 18.941406 -21.429688 18.515625 -21.515625 C 18.097656 -21.597656 17.585938 -21.640625 16.984375 -21.640625 C 15.035156 -21.640625 13.546875 -20.957031 12.515625 -19.59375 C 11.492188 -18.226562 10.984375 -16.03125 10.984375 -13 L 10.984375 0 Z M 4 0 "/></g></g></g></svg>